<?xml version="1.0" encoding="UTF-8" standalone="no"?>
<!-- Created with Inkscape (http://www.inkscape.org/) -->

<svg
   xmlns:dc="http://purl.org/dc/elements/1.1/"
   xmlns:cc="http://creativecommons.org/ns#"
   xmlns:rdf="http://www.w3.org/1999/02/22-rdf-syntax-ns#"
   xmlns:svg="http://www.w3.org/2000/svg"
   xmlns="http://www.w3.org/2000/svg"
   xmlns:sodipodi="http://sodipodi.sourceforge.net/DTD/sodipodi-0.dtd"
   xmlns:inkscape="http://www.inkscape.org/namespaces/inkscape"
   width="500"
   height="500"
   id="svg2"
   version="1.1"
   inkscape:version="0.48.4 r"
   sodipodi:docname="Nuevo documento 1">
  <defs
     id="defs4" />
  <sodipodi:namedview
     id="base"
     pagecolor="#ffffff"
     bordercolor="#666666"
     borderopacity="1.0"
     inkscape:pageopacity="0.0"
     inkscape:pageshadow="2"
     inkscape:zoom="0.35"
     inkscape:cx="350"
     inkscape:cy="520"
     inkscape:document-units="px"
     inkscape:current-layer="layer1"
     showgrid="false"
     inkscape:window-width="1366"
     inkscape:window-height="715"
     inkscape:window-x="-8"
     inkscape:window-y="-8"
     inkscape:window-maximized="1" />
  <metadata
     id="metadata7">
    <rdf:RDF>
      <cc:Work
         rdf:about="">
        <dc:format>image/svg+xml</dc:format>
        <dc:type
           rdf:resource="http://purl.org/dc/dcmitype/StillImage" />
        <dc:title></dc:title>
      </cc:Work>
    </rdf:RDF>
  </metadata>
  <g
     inkscape:label="Capa 1"
     inkscape:groupmode="layer"
     id="layer1"
     transform="translate(0,-552.36218)">
    <path
       id="path3021"
       d="m 30.520431,808.36219 c 0,120.47299 97.579999,218.05101 218.050999,218.05101 120.473,0 218.051,-97.57802 218.051,-218.05101 0,-120.471 -97.578,-218.05101 -218.051,-218.05101 -120.471,0 -218.050999,97.58001 -218.050999,218.05101 z m 45.426,0 c 0,-13.992 1.638,-27.62 4.814,-40.61 l 40.612999,40.61 -9.084,54.51299 36.342,36.34 v 49.883 c -43.972,-31.256 -72.684999,-82.673 -72.684999,-140.73599 z m 132.919999,-167.993 c 12.72,-3.087 25.988,-4.63101 39.705,-4.63101 15.173,0 29.891,2.00001 43.883,5.63401 l -7.542,12.539 9.086,9.084 h 27.258 l 7.543,-7.541 c 6.35,3.362 12.35,6.996 18.169,11.084 l -16.625,5.542 -18.173,18.17 18.173,9.086 v 9.086 h -18.173 v 18.17 c 0,0 12.536,9.086 27.254,9.086 14.448,0 7.998,-19.897 18.174,-27.256 10.267,-7.361 22.715,-5.724 22.715,-5.724 l 5.906,1.544 c 11.085,14.626 19.892,30.984 25.891,48.697 v 0.909 c 0,0 -12.812,-9.086 -36.34,-9.086 -23.53,0 -45.427,9.086 -45.427,9.086 0,0 -25.627,7.453 -27.259,27.257 -2.82,34.069 9.086,45.428 9.086,45.428 l 45.428,27.25499 v 88.408 c -29.705,24.256 -67.688,38.79 -109.027,38.79 -19.532,0 -38.249,-3.174 -55.785,-9.174 l 46.699,-108.938 -9.084,-45.42699 c 0,0 -36.071,-45.428 -54.513,-45.428 -18.441,0 -27.256,27.256 -27.256,27.256 l -18.172,-36.34 54.512,-36.343 27.257,-72.683 -3.363,-13.54 z"
       clip-rule="evenodd"
       inkscape:connector-curvature="0"
       style="fill:#010101;fill-rule:evenodd"
       inkscape:export-filename="C:\Users\Antonio\Documents\git\localize\PluginIcon.png"
       inkscape:export-xdpi="31.690142"
       inkscape:export-ydpi="31.690142" />
  </g>
</svg>
